<svg width="180" height="52" viewBox="0 0 180 52" fill="none" xmlns="http://www.w3.org/2000/svg">
<path d="M179 46.0024C179 48.7735 176.709 51.0182 173.874 51.0182H6.13243C3.2995 51.0182 1 48.7735 1 46.0024V6.00284C1 3.23301 3.2995 0.980469 6.13243 0.980469H173.873C176.709 0.980469 178.999 3.23301 178.999 6.00284L179 46.0024Z" fill="black"/>
<path d="M173.333 1.04162C176.42 1.04162 178.932 3.4905 178.932 6.5V45.5C178.932 48.5095 176.42 50.9584 173.333 50.9584H6.66667C3.58 50.9584 1.06833 48.5095 1.06833 45.5V6.5C1.06833 3.4905 3.58 1.04162 6.66667 1.04162H173.333ZM173.333 2.74817e-06H6.66667C3.00167 2.74817e-06 0 2.92663 0 6.5V45.5C0 49.0734 3.00167 52 6.66667 52H173.333C176.998 52 180 49.0734 180 45.5V6.5C180 2.92663 176.998 2.74817e-06 173.333 2.74817e-06Z" fill="#A6A6A6"/>
<path d="M40.1707 25.7191C40.132 21.5292 43.6894 19.4908 43.852 19.3959C41.8374 16.532 38.7147 16.1407 37.6174 16.1095C34.9947 15.8404 32.4507 17.6396 31.1147 17.6396C29.752 17.6396 27.6947 16.1355 25.4774 16.1797C22.624 16.2226 19.9547 17.8333 18.4907 20.3345C15.4694 25.4344 17.7227 32.9289 20.6174 37.0512C22.0654 39.0701 23.7574 41.3243 25.972 41.245C28.1387 41.1579 28.948 39.8982 31.5627 39.8982C34.1534 39.8982 34.9134 41.245 37.172 41.1943C39.4974 41.1579 40.9614 39.1663 42.3587 37.1292C44.032 34.8152 44.704 32.5363 44.7307 32.4193C44.676 32.4011 40.2147 30.741 40.1707 25.7191Z" fill="white"/>
<path d="M35.904 13.3977C37.0694 11.9768 37.8667 10.0437 37.6454 8.08203C35.9587 8.15483 33.8494 9.21953 32.6347 10.6092C31.56 11.8338 30.6 13.841 30.848 15.7286C32.7427 15.8664 34.688 14.7965 35.904 13.3977Z" fill="white"/>
<path d="M71.5266 40.9547H68.4986L66.84 35.873H61.0746L59.4946 40.9547H56.5466L62.2586 23.6543H65.7866L71.5266 40.9547ZM66.34 33.741L64.84 29.2235C64.6813 28.762 64.384 27.6752 63.9453 25.9644H63.892C63.7173 26.7002 63.436 27.787 63.0493 29.2235L61.576 33.741H66.34Z" fill="white"/>
<path d="M86.216 34.5628C86.216 36.6844 85.628 38.3614 84.452 39.5925C83.3987 40.6884 82.0907 41.2357 80.5293 41.2357C78.844 41.2357 77.6333 40.6455 76.896 39.4651H76.8427V46.0366H74V32.5855C74 31.2517 73.964 29.8828 73.8947 28.4788H76.3947L76.5533 30.4561H76.6067C77.5547 28.9663 78.9933 28.2227 80.924 28.2227C82.4333 28.2227 83.6933 28.8038 84.7013 29.9673C85.712 31.1321 86.216 32.6635 86.216 34.5628ZM83.32 34.6642C83.32 33.45 83.04 32.449 82.4773 31.6612C81.8627 30.8396 81.0373 30.4288 80.0027 30.4288C79.3013 30.4288 78.664 30.6576 78.0947 31.1087C77.524 31.5637 77.1506 32.1578 76.976 32.8936C76.888 33.2368 76.844 33.5176 76.844 33.7386V35.8186C76.844 36.726 77.1293 37.4917 77.7 38.117C78.2707 38.7423 79.012 39.0543 79.924 39.0543C80.9947 39.0543 81.828 38.6513 82.424 37.8479C83.0213 37.0432 83.32 35.9824 83.32 34.6642Z" fill="white"/>
<path d="M100.932 34.5628C100.932 36.6844 100.344 38.3614 99.1666 39.5925C98.1146 40.6884 96.8066 41.2357 95.2453 41.2357C93.5599 41.2357 92.3493 40.6455 91.6133 39.4651H91.5599V46.0366H88.7173V32.5855C88.7173 31.2517 88.6813 29.8828 88.6119 28.4788H91.1119L91.2706 30.4561H91.3239C92.2706 28.9663 93.7093 28.2227 95.6413 28.2227C97.1493 28.2227 98.4093 28.8038 99.4199 29.9673C100.427 31.1321 100.932 32.6635 100.932 34.5628ZM98.0359 34.6642C98.0359 33.45 97.7546 32.449 97.1919 31.6612C96.5773 30.8396 95.7546 30.4288 94.7186 30.4288C94.0159 30.4288 93.3799 30.6576 92.8093 31.1087C92.2386 31.5637 91.8666 32.1578 91.6919 32.8936C91.6053 33.2368 91.5599 33.5176 91.5599 33.7386V35.8186C91.5599 36.726 91.8453 37.4917 92.4133 38.117C92.9839 38.741 93.7253 39.0543 94.6399 39.0543C95.7106 39.0543 96.5439 38.6513 97.1399 37.8479C97.7373 37.0432 98.0359 35.9824 98.0359 34.6642Z" fill="white"/>
<path d="M117.385 36.1027C117.385 37.5743 116.861 38.7716 115.809 39.6959C114.653 40.706 113.044 41.2104 110.976 41.2104C109.067 41.2104 107.536 40.8516 106.377 40.1327L107.036 37.8226C108.284 38.5584 109.653 38.9276 111.145 38.9276C112.216 38.9276 113.049 38.691 113.648 38.2204C114.244 37.7498 114.541 37.118 114.541 36.3302C114.541 35.6282 114.296 35.0367 113.804 34.557C113.315 34.0773 112.497 33.6314 111.356 33.2193C108.249 32.0896 106.697 30.4347 106.697 28.2585C106.697 26.8363 107.241 25.6702 108.331 24.7628C109.416 23.8541 110.864 23.4004 112.675 23.4004C114.289 23.4004 115.631 23.6747 116.701 24.222L115.991 26.4814C114.991 25.951 113.86 25.6858 112.595 25.6858C111.595 25.6858 110.813 25.9263 110.253 26.4047C109.78 26.8324 109.543 27.3537 109.543 27.9712C109.543 28.655 109.813 29.2205 110.357 29.6651C110.831 30.0759 111.691 30.5205 112.939 31.0002C114.465 31.5995 115.587 32.3002 116.308 33.1036C117.027 33.9044 117.385 34.9067 117.385 36.1027Z" fill="white"/>
<path d="M126.784 30.5594H123.651V36.6161C123.651 38.1566 124.203 38.9262 125.309 38.9262C125.817 38.9262 126.239 38.8833 126.572 38.7975L126.651 40.9022C126.091 41.1063 125.353 41.209 124.44 41.209C123.317 41.209 122.44 40.8749 121.807 40.208C121.176 39.5398 120.859 38.4192 120.859 36.8449V30.5568H118.992V28.4768H120.859V26.1927L123.651 25.3711V28.4768H126.784V30.5594Z" fill="white"/>
<path d="M140.921 34.6141C140.921 36.5316 140.359 38.1059 139.236 39.337C138.059 40.6045 136.496 41.2363 134.548 41.2363C132.671 41.2363 131.176 40.6292 130.061 39.415C128.947 38.2008 128.389 36.6681 128.389 34.8208C128.389 32.8877 128.963 31.3043 130.113 30.0732C131.261 28.8408 132.811 28.2246 134.759 28.2246C136.636 28.2246 138.147 28.8317 139.287 30.0472C140.377 31.2263 140.921 32.7486 140.921 34.6141ZM137.972 34.7038C137.972 33.5533 137.72 32.5666 137.209 31.7437C136.613 30.7479 135.761 30.2513 134.657 30.2513C133.515 30.2513 132.647 30.7492 132.051 31.7437C131.54 32.5679 131.288 33.5702 131.288 34.7558C131.288 35.9063 131.54 36.893 132.051 37.7146C132.665 38.7104 133.524 39.207 134.632 39.207C135.717 39.207 136.569 38.7 137.184 37.6886C137.708 36.8501 137.972 35.853 137.972 34.7038Z" fill="white"/>
<path d="M150.161 30.9163C149.88 30.8656 149.58 30.8396 149.265 30.8396C148.265 30.8396 147.492 31.2075 146.948 31.9446C146.475 32.5946 146.237 33.4162 146.237 34.4081V40.9536H143.396L143.423 32.4074C143.423 30.9696 143.387 29.6605 143.316 28.4801H145.792L145.896 30.8669H145.975C146.275 30.0466 146.748 29.3862 147.396 28.8909C148.029 28.445 148.713 28.2227 149.451 28.2227C149.713 28.2227 149.951 28.2409 150.161 28.2734V30.9163Z" fill="white"/>
<path d="M162.875 34.1259C162.875 34.6225 162.841 35.0411 162.771 35.383H154.243C154.276 36.6154 154.688 37.5579 155.48 38.2079C156.199 38.789 157.128 39.0802 158.269 39.0802C159.532 39.0802 160.684 38.8839 161.72 38.49L162.165 40.414C160.955 40.9288 159.525 41.1849 157.876 41.1849C155.892 41.1849 154.335 40.6155 153.201 39.478C152.071 38.3405 151.504 36.813 151.504 34.8968C151.504 33.0157 152.031 31.4492 153.085 30.1999C154.189 28.8661 155.681 28.1992 157.559 28.1992C159.403 28.1992 160.799 28.8661 161.747 30.1999C162.497 31.2594 162.875 32.5698 162.875 34.1259ZM160.164 33.407C160.183 32.5854 159.997 31.8756 159.612 31.2763C159.12 30.5054 158.364 30.1206 157.347 30.1206C156.417 30.1206 155.661 30.4963 155.084 31.2503C154.611 31.8496 154.329 32.5685 154.243 33.4057H160.164V33.407Z" fill="white"/>
<path d="M65.4 13.0123C65.4 14.5424 64.9293 15.6942 63.9893 16.4677C63.1186 17.1814 61.8813 17.5389 60.2786 17.5389C59.484 17.5389 58.804 17.5051 58.2346 17.4375V9.07719C58.9773 8.96019 59.7773 8.90039 60.6413 8.90039C62.168 8.90039 63.3186 9.22409 64.0946 9.87149C64.964 10.6034 65.4 11.6499 65.4 13.0123ZM63.9266 13.05C63.9266 12.0581 63.6573 11.2976 63.1186 10.7672C62.58 10.2381 61.7933 9.97289 60.7573 9.97289C60.3173 9.97289 59.9426 10.0015 59.632 10.0613V16.417C59.804 16.443 60.1186 16.4547 60.576 16.4547C61.6453 16.4547 62.4706 16.1648 63.052 15.585C63.6333 15.0052 63.9266 14.1602 63.9266 13.05Z" fill="white"/>
<path d="M73.2119 14.3491C73.2119 15.2916 72.9359 16.0638 72.3839 16.6696C71.8052 17.2923 71.0386 17.603 70.0812 17.603C69.1586 17.603 68.4239 17.3053 67.8759 16.7073C67.3292 16.1106 67.0559 15.3579 67.0559 14.4505C67.0559 13.5015 67.3372 12.7228 67.9026 12.1183C68.4679 11.5138 69.2279 11.2109 70.1852 11.2109C71.1079 11.2109 71.8492 11.5086 72.4106 12.1053C72.9439 12.6851 73.2119 13.4339 73.2119 14.3491ZM71.7626 14.3933C71.7626 13.8278 71.6372 13.3429 71.3879 12.9386C71.0946 12.4498 70.6772 12.2054 70.1346 12.2054C69.5732 12.2054 69.1466 12.4498 68.8532 12.9386C68.6026 13.3429 68.4786 13.8356 68.4786 14.418C68.4786 14.9835 68.6039 15.4684 68.8532 15.8727C69.1559 16.3615 69.5772 16.6059 70.1212 16.6059C70.6546 16.6059 71.0732 16.3576 71.3746 15.8597C71.6332 15.4476 71.7626 14.9588 71.7626 14.3933Z" fill="white"/>
<path d="M83.6866 11.3359L81.72 17.4641H80.44L79.6253 14.803C79.4186 14.1387 79.2506 13.4783 79.12 12.8231H79.0946C78.9733 13.4965 78.8053 14.1556 78.5893 14.803L77.724 17.4641H76.4293L74.58 11.3359H76.016L76.7266 14.2492C76.8986 14.9382 77.04 15.5947 77.1533 16.2161H77.1786C77.2826 15.7039 77.4546 15.0513 77.6973 14.2622L78.5893 11.3372H79.728L80.5826 14.1998C80.7893 14.8979 80.9573 15.57 81.0866 16.2174H81.1253C81.22 15.5869 81.3626 14.9148 81.552 14.1998L82.3146 11.3372H83.6866V11.3359Z" fill="white"/>
<path d="M90.9306 17.4639H89.5333V13.9539C89.5333 12.8723 89.1119 12.3315 88.2666 12.3315C87.8519 12.3315 87.5173 12.4797 87.2573 12.7774C86.9999 13.0751 86.8693 13.4261 86.8693 13.8278V17.4626H85.4719V13.0868C85.4719 12.5486 85.4546 11.9649 85.4213 11.3331H86.6493L86.7146 12.2912H86.7533C86.9159 11.9935 87.1586 11.7478 87.4773 11.5515C87.8559 11.3227 88.2799 11.207 88.7439 11.207C89.3306 11.207 89.8186 11.3916 90.2066 11.7621C90.6892 12.2158 90.9306 12.8931 90.9306 13.7927V17.4639Z" fill="white"/>
<path d="M94.7839 17.4635H93.3879V8.52344H94.7839V17.4635Z" fill="white"/>
<path d="M103.011 14.3491C103.011 15.2916 102.735 16.0638 102.183 16.6696C101.604 17.2923 100.836 17.603 99.88 17.603C98.956 17.603 98.2213 17.3053 97.6746 16.7073C97.1279 16.1106 96.8546 15.3579 96.8546 14.4505C96.8546 13.5015 97.136 12.7228 97.7013 12.1183C98.2666 11.5138 99.0266 11.2109 99.9826 11.2109C100.907 11.2109 101.647 11.5086 102.209 12.1053C102.743 12.6851 103.011 13.4339 103.011 14.3491ZM101.56 14.3933C101.56 13.8278 101.435 13.3429 101.185 12.9386C100.893 12.4498 100.475 12.2054 99.9333 12.2054C99.3706 12.2054 98.9439 12.4498 98.6519 12.9386C98.4013 13.3429 98.2773 13.8356 98.2773 14.418C98.2773 14.9835 98.4026 15.4684 98.6519 15.8727C98.9546 16.3615 99.376 16.6059 99.92 16.6059C100.453 16.6059 100.871 16.3576 101.172 15.8597C101.432 15.4476 101.56 14.9588 101.56 14.3933Z" fill="white"/>
<path d="M109.773 17.4639H108.519L108.415 16.758H108.376C107.947 17.3209 107.335 17.603 106.54 17.603C105.947 17.603 105.467 17.4171 105.105 17.0479C104.777 16.7125 104.613 16.2952 104.613 15.7999C104.613 15.0511 104.933 14.4804 105.577 14.0852C106.22 13.69 107.124 13.4963 108.288 13.5054V13.391C108.288 12.5837 107.853 12.1807 106.983 12.1807C106.363 12.1807 105.816 12.3328 105.344 12.6344L105.06 11.74C105.644 11.3877 106.365 11.2109 107.216 11.2109C108.859 11.2109 109.683 12.0559 109.683 13.7459V16.0027C109.683 16.615 109.713 17.1025 109.773 17.4639ZM108.323 15.3579V14.4128C106.781 14.3868 106.011 14.7989 106.011 15.6478C106.011 15.9676 106.099 16.2068 106.279 16.3667C106.459 16.5266 106.688 16.6059 106.961 16.6059C107.268 16.6059 107.555 16.511 107.816 16.3225C108.079 16.1327 108.24 15.8922 108.3 15.5971C108.315 15.5308 108.323 15.4502 108.323 15.3579Z" fill="white"/>
<path d="M117.713 17.4635H116.473L116.408 16.4794H116.369C115.973 17.2282 115.299 17.6026 114.351 17.6026C113.593 17.6026 112.963 17.3127 112.463 16.7329C111.963 16.1531 111.713 15.4004 111.713 14.4761C111.713 13.4842 111.984 12.6808 112.528 12.0672C113.055 11.4952 113.7 11.2092 114.468 11.2092C115.312 11.2092 115.903 11.4861 116.239 12.0412H116.265V8.52344H117.664V15.8125C117.664 16.4092 117.68 16.9591 117.713 17.4635ZM116.265 14.8791V13.8573C116.265 13.6805 116.252 13.5375 116.227 13.4283C116.148 13.1007 115.979 12.8251 115.721 12.6028C115.461 12.3805 115.148 12.2687 114.787 12.2687C114.265 12.2687 113.857 12.4702 113.557 12.8745C113.26 13.2788 113.109 13.7949 113.109 14.4254C113.109 15.0312 113.252 15.5226 113.539 15.9009C113.841 16.3039 114.249 16.5054 114.76 16.5054C115.219 16.5054 115.585 16.3377 115.864 16.001C116.133 15.6903 116.265 15.3159 116.265 14.8791Z" fill="white"/>
<path d="M129.664 14.3491C129.664 15.2916 129.388 16.0638 128.836 16.6696C128.257 17.2923 127.492 17.603 126.533 17.603C125.612 17.603 124.877 17.3053 124.328 16.7073C123.781 16.1106 123.508 15.3579 123.508 14.4505C123.508 13.5015 123.789 12.7228 124.355 12.1183C124.92 11.5138 125.68 11.2109 126.639 11.2109C127.56 11.2109 128.303 11.5086 128.863 12.1053C129.396 12.6851 129.664 13.4339 129.664 14.3491ZM128.216 14.3933C128.216 13.8278 128.091 13.3429 127.841 12.9386C127.547 12.4498 127.131 12.2054 126.587 12.2054C126.027 12.2054 125.6 12.4498 125.305 12.9386C125.055 13.3429 124.931 13.8356 124.931 14.418C124.931 14.9835 125.056 15.4684 125.305 15.8727C125.608 16.3615 126.029 16.6059 126.573 16.6059C127.107 16.6059 127.527 16.3576 127.828 15.8597C128.085 15.4476 128.216 14.9588 128.216 14.3933Z" fill="white"/>
<path d="M137.177 17.4639H135.781V13.9539C135.781 12.8723 135.36 12.3315 134.513 12.3315C134.099 12.3315 133.764 12.4797 133.505 12.7774C133.247 13.0751 133.117 13.4261 133.117 13.8278V17.4626H131.719V13.0868C131.719 12.5486 131.703 11.9649 131.669 11.3331H132.896L132.961 12.2912H133C133.164 11.9935 133.407 11.7478 133.724 11.5515C134.104 11.3227 134.527 11.207 134.992 11.207C135.577 11.207 136.065 11.3916 136.453 11.7621C136.937 12.2158 137.177 12.8931 137.177 13.7927V17.4639Z" fill="white"/>
<path d="M146.581 12.3553H145.043V15.3323C145.043 16.0889 145.316 16.4672 145.857 16.4672C146.108 16.4672 146.316 16.4464 146.48 16.4035L146.516 17.437C146.24 17.5384 145.877 17.5891 145.431 17.5891C144.879 17.5891 144.449 17.4253 144.139 17.0977C143.827 16.7701 143.672 16.2189 143.672 15.4454V12.3553H142.753V11.3348H143.672V10.2116L145.041 9.80859V11.3335H146.58V12.3553H146.581Z" fill="white"/>
<path d="M153.979 17.4635H152.58V13.9795C152.58 12.881 152.159 12.3311 151.315 12.3311C150.667 12.3311 150.224 12.6496 149.981 13.2866C149.94 13.4205 149.916 13.5843 149.916 13.7767V17.4622H148.52V8.52344H149.916V12.2167H149.943C150.383 11.5446 151.013 11.2092 151.831 11.2092C152.409 11.2092 152.888 11.3938 153.268 11.7643C153.741 12.2258 153.979 12.9122 153.979 13.8196V17.4635Z" fill="white"/>
<path d="M161.609 14.1099C161.609 14.3543 161.591 14.5597 161.557 14.7274H157.367C157.385 15.3332 157.585 15.7947 157.973 16.1145C158.328 16.4005 158.785 16.5435 159.345 16.5435C159.965 16.5435 160.531 16.4473 161.04 16.2536L161.259 17.2C160.663 17.4522 159.961 17.5783 159.149 17.5783C158.176 17.5783 157.409 17.2988 156.855 16.7398C156.297 16.1808 156.021 15.4307 156.021 14.4895C156.021 13.5652 156.279 12.7956 156.797 12.182C157.339 11.5268 158.071 11.1992 158.995 11.1992C159.899 11.1992 160.585 11.5268 161.049 12.182C161.424 12.702 161.609 13.3455 161.609 14.1099ZM160.276 13.7576C160.287 13.3533 160.195 13.0049 160.005 12.7111C159.763 12.3328 159.393 12.143 158.893 12.143C158.437 12.143 158.065 12.3276 157.781 12.6981C157.549 12.9932 157.412 13.3455 157.367 13.7576H160.276Z" fill="white"/>
</svg>
