<svg width="74" height="74" viewBox="0 0 74 74" fill="none" xmlns="http://www.w3.org/2000/svg">
<rect width="74" height="74" rx="14.0952" fill="#3B2762"/>
<path fill-rule="evenodd" clip-rule="evenodd" d="M42.952 58.4648C57.7615 54.2646 66.4883 43.9479 64.0831 32.9529C61.724 22.1684 49.2764 8.90996 31.2517 14.3793C13.2269 19.8487 8.61183 37.4551 11.1659 47.5829C14.8631 57.9924 28.1425 62.665 42.952 58.4648ZM34.8229 25.8574C33.2773 25.8574 32.0243 27.1104 32.0243 28.656V45.7939C32.0243 47.3395 33.2773 48.5925 34.8229 48.5925C36.3685 48.5925 37.6215 47.3395 37.6215 45.7939V28.656C37.6215 27.1104 36.3686 25.8574 34.8229 25.8574ZM26.9859 31.0196C25.4403 31.0196 24.1873 32.2726 24.1873 33.8182L24.1873 40.5348C24.1873 42.0804 25.4403 43.3334 26.9859 43.3334C28.5316 43.3334 29.7845 42.0804 29.7845 40.5348V33.8182C29.7845 32.2726 28.5316 31.0196 26.9859 31.0196ZM39.859 34.1555C39.859 32.6098 41.112 31.3569 42.6576 31.3569C44.2032 31.3569 45.4562 32.6098 45.4562 34.1555V40.3124C45.4562 41.858 44.2032 43.111 42.6576 43.111C41.112 43.111 39.859 41.858 39.859 40.3124V34.1555ZM50.4946 33.849C48.949 33.849 47.696 35.1019 47.696 36.6476V37.767C47.696 39.3126 48.949 40.5656 50.4946 40.5656C52.0402 40.5656 53.2932 39.3126 53.2932 37.767V36.6476C53.2932 35.1019 52.0402 33.849 50.4946 33.849Z" fill="white"/>
</svg>
